# xmcd
#
# Track frame offsets:
#	150
#	17724
#	25947
#	37801
#	51235
#	63898
#	73407
#	83923
#	95087
#	106523
#	120505
#	134094
#	144584
#	159302
#
# Disc length: 2246 seconds
#
# Revision: 1
# Processed by: cddbd v1.5.1PL0 Copyright (c) Steve Scherf et al.
# Submitted via: audiograbber 1.82.02
#
DISCID=bb08c40e
DTITLE=Various Artist - Desperado CD3
DYEAR=1900
DGENRE=
TTITLE0=Skeeter Davis - Always on my mind
TTITLE1=Jonny Cash - Guess Things Happen that way
TTITLE2=Dolly Parton - Letter to heavenTrack  3
TTITLE3=Patti Page - Tennessee WaltzTrack  4
TTITLE4=Billy Jo Spears - "57 Chevrolet"
TTITLE5=Dave Duddley - Six Days on the Road
TTITLE6=Faron Young - If you ain´t lovin´
TTITLE7=Anne Murray - Last thing on my mind
TTITLE8=Kenny Rogers - Me and Bobby Mcghee
TTITLE9=Lynn Anderson - Cry
TTITLE10=Willy Nelson - You´ll always have someone
TTITLE11=Waylon Jennings - Lorena
TTITLE12=Glen Campbell - Rhinestone Cowboy
TTITLE13=The Bellamy Brothers - Let your love flow
EXTD=
EXTT0=
EXTT1=
EXTT2=
EXTT3=
EXTT4=
EXTT5=
EXTT6=
EXTT7=
EXTT8=
EXTT9=
EXTT10=
EXTT11=
EXTT12=
EXTT13=
PLAYORDER=
